<?xml version="1.0" ?><!DOCTYPE svg  PUBLIC '-//W3C//DTD SVG 1.1//EN'  'http://www.w3.org/Graphics/SVG/1.1/DTD/svg11.dtd'><svg enable-background="new 0 0 512 512" height="512px" id="Слой_1" version="1.1" viewBox="0 0 512 512" width="512px" xml:space="preserve" xmlns="http://www.w3.org/2000/svg" xmlns:xlink="http://www.w3.org/1999/xlink"><g><g><g><path clip-rule="evenodd" d="M376.813,123.229c-2.082-11.007-12.828-20.761-32.241-29.266      c-5.314-2.307-10.861-4.362-16.643-6.167c-7.249-2.275-14.871-4.157-22.871-5.643c-15.013-2.766-31.346-4.143-49-4.132      c-17.674-0.011-34.027,1.366-49.059,4.132c-7.999,1.486-15.624,3.368-22.871,5.643c-5.78,1.805-11.327,3.86-16.643,6.167      c-19.393,8.504-30.12,18.259-32.182,29.266c-0.253,1.416-0.253,2.832,0,4.247c0.688,4.293,2.764,8.385,6.226,12.277      c0.037,0.039,0.078,0.078,0.116,0.115c5.74,5.981,14.352,11.489,25.84,16.524v0.058c7.875,3.435,16.274,6.324,25.197,8.669      c18.781,4.88,39.886,7.323,63.316,7.331h0.059c23.442-0.008,44.549-2.471,63.317-7.389c8.931-2.312,17.331-5.182,25.196-8.611      v-0.058c11.489-5.035,20.1-10.543,25.84-16.524c0.039-0.037,0.08-0.076,0.116-0.115c3.48-3.893,5.576-7.984,6.285-12.277      C377.063,126.061,377.063,124.645,376.813,123.229z M256.058,252.799h-0.059c-19.775-0.01-38.027-1.639-54.761-4.888      c-15.253-2.937-29.238-7.223-41.959-12.857v0.058c-2.542-1.123-4.965-2.267-7.274-3.432c-6.151-3.068-11.544-6.287-16.179-9.659      c-0.209,0.73-0.384,1.469-0.522,2.212c-0.253,1.415-0.253,2.831,0,4.247c0.688,4.292,2.764,8.384,6.226,12.276      c0.037,0.04,0.078,0.078,0.116,0.116c5.74,5.98,14.352,11.488,25.84,16.524v0.057c7.807,3.406,16.129,6.256,24.965,8.555      c18.839,4.957,40.022,7.438,63.549,7.447h0.059c23.54-0.01,44.722-2.49,63.549-7.447c8.845-2.303,17.168-5.152,24.965-8.555      v-0.057c11.489-5.036,20.1-10.543,25.84-16.524c0.039-0.038,0.08-0.076,0.116-0.116c3.48-3.893,5.576-7.984,6.285-12.276      c0.25-1.416,0.25-2.832,0-4.247c-0.144-0.748-0.315-1.485-0.525-2.212c-4.635,3.369-10.027,6.59-16.176,9.659      c-2.31,1.165-4.735,2.309-7.274,3.432v-0.058c-12.742,5.635-26.747,9.921-42.019,12.857      C294.085,251.161,275.833,252.79,256.058,252.799z M319.606,287.301c-2.88,0.668-5.809,1.289-8.788,1.863v38.691      c12.159-2.586,23.412-6.137,33.753-10.648v-0.059c6.008-2.613,11.187-5.348,15.54-8.203l-0.06-35.957      c-2.287,1.117-4.694,2.221-7.215,3.316v0.117c-0.246,0.105-0.496,0.201-0.757,0.289      C342.041,281.051,331.218,284.582,319.606,287.301z M352.837,175.417c-0.289,0.126-0.58,0.242-0.873,0.35      c-10.08,4.342-20.941,7.871-32.589,10.589c-2.806,0.645-5.658,1.246-8.557,1.804v38.691      c12.159-2.586,23.412-6.135,33.753-10.648v-0.058c6.008-2.613,11.187-5.349,15.54-8.203l-0.06-35.957      c-2.287,1.117-4.694,2.223-7.215,3.317V175.417z M397.355,121.25c0.03,0.311,0.048,0.641,0.058,0.989v65.514      c-0.005,0.359-0.023,0.709-0.058,1.046c-0.098,0.639-0.195,1.317-0.291,2.037c-0.016,0.158-0.036,0.334-0.059,0.523      c-0.594,4.934-2.241,9.646-4.946,14.139c3.195,5.297,4.962,10.883,5.296,16.756c0.03,0.31,0.048,0.64,0.058,0.989v65.512      c-0.005,0.361-0.023,0.709-0.058,1.047c-0.098,0.639-0.195,1.318-0.291,2.037c-0.016,0.158-0.036,0.334-0.059,0.523      c-0.591,4.912-2.221,9.605-4.888,14.08c3.16,5.279,4.906,10.846,5.237,16.697c0.03,0.311,0.048,0.643,0.058,0.99v65.512      c-0.005,0.361-0.023,0.709-0.058,1.049c-0.098,0.637-0.195,1.316-0.291,2.035c-0.016,0.16-0.036,0.332-0.059,0.523      c-1.868,15.537-14.167,28.977-36.895,40.32c-2.31,1.166-4.735,2.309-7.274,3.432v-0.057      c-12.742,5.635-26.747,9.92-42.019,12.857c-16.733,3.248-34.985,4.877-54.761,4.889h-0.059      c-19.775-0.012-38.027-1.641-54.761-4.889c-15.253-2.938-29.238-7.223-41.959-12.857v0.057      c-2.542-1.123-4.965-2.266-7.274-3.432c-22.748-11.344-35.067-24.783-36.954-40.32c-0.022-0.191-0.043-0.363-0.059-0.523      c-0.077-0.719-0.155-1.398-0.232-2.035c-0.055-0.34-0.093-0.688-0.115-1.049v-65.512c0.027-0.348,0.065-0.68,0.115-0.99      c0.323-5.848,2.069-11.395,5.238-16.641c-2.701-4.508-4.35-9.223-4.947-14.137c-0.022-0.189-0.043-0.365-0.059-0.523      c-0.077-0.719-0.155-1.398-0.232-2.037c-0.055-0.338-0.093-0.686-0.115-1.047v-65.512c0.027-0.35,0.065-0.68,0.115-0.989      c0.323-5.868,2.069-11.435,5.238-16.698c-2.699-4.526-4.347-9.258-4.947-14.196c-0.022-0.189-0.043-0.365-0.059-0.523      c-0.077-0.72-0.155-1.398-0.232-2.037c-0.055-0.337-0.093-0.687-0.115-1.046V122.24c0.027-0.349,0.065-0.679,0.115-0.989      c0.691-12.497,7.848-23.648,21.474-33.454c2.698-1.933,5.646-3.815,8.848-5.643c4.28-2.441,9.013-4.788,14.198-7.041v0.059      c26.697-11.84,58.956-17.774,96.778-17.805c37.82,0.031,70.08,5.965,96.779,17.805v-0.059c5.186,2.253,9.918,4.6,14.198,7.041      c3.181,1.828,6.11,3.71,8.788,5.643C389.468,97.602,396.646,108.753,397.355,121.25z M152.005,171.985v35.957      c4.333,2.854,9.493,5.59,15.48,8.203v0.058c10.344,4.514,21.594,8.063,33.753,10.648V188.16      c-2.897-0.558-5.749-1.16-8.556-1.804c-11.628-2.714-22.472-6.244-32.53-10.589c-0.293-0.107-0.584-0.224-0.873-0.35v-0.115      C156.737,174.208,154.313,173.102,152.005,171.985z M152.005,272.988v35.957c4.333,2.855,9.493,5.59,15.48,8.203v0.059      c10.344,4.512,21.594,8.063,33.753,10.648v-38.691c-2.978-0.574-5.907-1.195-8.788-1.863      c-11.594-2.717-22.398-6.246-32.414-10.59c-0.262-0.088-0.514-0.184-0.757-0.289v-0.117      C156.737,275.209,154.313,274.105,152.005,272.988z M135.304,329.367c0.688,4.293,2.764,8.383,6.226,12.275      c0.037,0.039,0.078,0.08,0.116,0.117c5.74,5.982,14.352,11.488,25.84,16.521v0.061c24.438,10.654,53.942,15.988,88.514,16h0.059      c34.572-0.012,64.076-5.346,88.514-16v-0.061c11.489-5.033,20.1-10.539,25.84-16.521c0.039-0.037,0.08-0.078,0.116-0.117      c3.48-3.893,5.576-7.982,6.285-12.275c0.25-1.416,0.25-2.83,0-4.248c-0.137-0.715-0.312-1.432-0.525-2.152      c-4.623,3.402-10.016,6.643-16.176,9.715c-2.31,1.166-4.735,2.311-7.274,3.436v-0.061c-12.742,5.635-26.747,9.922-42.019,12.859      c-16.733,3.248-34.985,4.877-54.761,4.887h-0.059c-19.775-0.01-38.027-1.639-54.761-4.887      c-15.253-2.938-29.238-7.225-41.959-12.859v0.061c-2.542-1.125-4.965-2.27-7.274-3.436c-6.163-3.072-11.558-6.291-16.179-9.656      c-0.216,0.684-0.389,1.385-0.522,2.094C135.051,326.537,135.051,327.951,135.304,329.367z M159.279,377.191      c-2.542-1.094-4.967-2.201-7.274-3.316v35.957c4.333,2.855,9.493,5.592,15.48,8.205v0.057      c10.344,4.514,21.594,8.061,33.753,10.646v-38.689c-15.248-2.941-29.235-7.188-41.959-12.742V377.191z M360.052,373.875      c-2.287,1.115-4.694,2.223-7.215,3.316v0.117c-12.744,5.555-26.749,9.801-42.019,12.742v38.689      c12.159-2.586,23.412-6.133,33.753-10.646v-0.057c6.008-2.613,11.187-5.35,15.54-8.205L360.052,373.875z" fill="#333333" fill-rule="evenodd"/></g><g><path clip-rule="evenodd" d="M336.715,209.571c-2.732,0.548-5.099,0.024-7.1-1.571      c-1.935-1.541-2.905-3.674-2.909-6.4c0.004-2.732,0.975-5.293,2.909-7.679c2.001-2.328,4.367-3.763,7.1-4.306      c2.71-0.561,5.017-0.075,6.927,1.454c2.007,1.606,3.017,3.778,3.025,6.516c-0.009,2.74-1.019,5.281-3.025,7.623      C341.731,207.581,339.425,209.035,336.715,209.571z" fill="#333333" fill-rule="evenodd"/></g><g><path clip-rule="evenodd" d="M329.615,294.924c2.001-2.328,4.367-3.764,7.1-4.305      c2.71-0.563,5.017-0.078,6.927,1.453c2.007,1.605,3.017,3.777,3.025,6.518c-0.009,2.738-1.019,5.279-3.025,7.619      c-1.91,2.373-4.217,3.828-6.927,4.363c-2.732,0.551-5.099,0.025-7.1-1.57c-1.935-1.541-2.905-3.674-2.909-6.398      C326.71,299.869,327.681,297.309,329.615,294.924z" fill="#333333" fill-rule="evenodd"/></g><g><path clip-rule="evenodd" d="M326.706,403.607c0.004-2.734,0.975-5.293,2.909-7.68      c2.001-2.328,4.367-3.764,7.1-4.307c2.71-0.559,5.017-0.076,6.927,1.455c2.007,1.605,3.017,3.779,3.025,6.516      c-0.009,2.74-1.019,5.281-3.025,7.621c-1.91,2.373-4.217,3.828-6.927,4.365c-2.732,0.547-5.099,0.021-7.1-1.57      C327.681,408.463,326.71,406.332,326.706,403.607z" fill="#333333" fill-rule="evenodd"/></g></g></g></svg>